<svg width="100%" height="100%" viewBox="0 0 216 174" fill="none" class="w-full" xmlns="http://www.w3.org/2000/svg"><g filter="url(#filter0_i_1_362)"><path d="M76 86.5H74.5C70.634 86.5 67.5 89.634 67.5 93.5V93.5C67.5 97.366 70.634 100.5 74.5 100.5H76M83 86.5H85.5C89.366 86.5 92.5 89.634 92.5 93.5V93.5C92.5 97.366 89.366 100.5 85.5 100.5H83M84 93.5H76" stroke="url(#paint0_radial_1_362)"/></g><mask id="path-2-inside-1_1_362" fill="white"><path d="M-4 70H216V118H-4V70Z"/></mask><path d="M-4 70.75H216V69.25H-4V70.75ZM216 117.25H-4V118.75H216V117.25Z" fill="url(#paint1_linear_1_362)" fill-opacity="0.1" mask="url(#path-2-inside-1_1_362)"/><mask id="path-4-inside-2_1_362" fill="white"><path d="M56 0H104V220H56V0Z"/></mask><path d="M103.25 0V220H104.75V0H103.25ZM56.75 220V0H55.25V220H56.75Z" fill="url(#paint2_linear_1_362)" fill-opacity="0.1" mask="url(#path-4-inside-2_1_362)"/><defs><filter id="filter0_i_1_362" x="56" y="70" width="48" height="48" filterUnits="userSpaceOnUse" color-interpolation-filters="sRGB"><feFlood flood-opacity="0" result="BackgroundImageFix"/><feBlend mode="normal" in="SourceGraphic" in2="BackgroundImageFix" result="shape"/><feColorMatrix in="SourceAlpha" type="matrix" values="0 0 0 0 0 0 0 0 0 0 0 0 0 0 0 0 0 0 127 0" result="hardAlpha"/><feOffset/><feGaussianBlur stdDeviation="5"/><feComposite in2="hardAlpha" operator="arithmetic" k2="-1" k3="1"/><feColorMatrix type="matrix" values="0 0 0 0 0.121569 0 0 0 0 0.160784 0 0 0 0 0.215686 0 0 0 0.05 0"/><feBlend mode="normal" in2="shape" result="effect1_innerShadow_1_362"/></filter><radialGradient id="paint0_radial_1_362" cx="0" cy="0" r="1" gradientUnits="userSpaceOnUse" gradientTransform="translate(68 87) rotate(48.3665) scale(18.0624)"><stop stop-color="#1F2937"/><stop offset="1" stop-color="#1F2937" stop-opacity="0.5"/></radialGradient><linearGradient id="paint1_linear_1_362" x1="-4" y1="94" x2="216" y2="94" gradientUnits="userSpaceOnUse"><stop stop-color="#1F2937" stop-opacity="0"/><stop offset="0.201835" stop-color="#1F2937"/><stop offset="0.53211" stop-color="#1F2937"/><stop offset="1" stop-color="#1F2937" stop-opacity="0"/></linearGradient><linearGradient id="paint2_linear_1_362" x1="80" y1="0" x2="80" y2="220" gradientUnits="userSpaceOnUse"><stop stop-color="#1F2937" stop-opacity="0"/><stop offset="0.28" stop-color="#1F2937"/><stop offset="0.53" stop-color="#1F2937"/><stop offset="0.825" stop-color="#1F2937" stop-opacity="0"/></linearGradient></defs></svg>