<svg width="51" height="81" viewBox="0 0 51 81" fill="none" xmlns="http://www.w3.org/2000/svg">
<path d="M15.0828 34.6301C18.6728 34.6301 22.5428 34.0901 26.6428 33.8601C28.7536 33.7153 30.8719 33.7153 32.9828 33.8601C34.0796 33.941 35.1712 34.0812 36.2528 34.2801L37.0728 34.4301C37.3628 34.5101 37.6528 34.5701 37.9428 34.6601C38.5159 34.8118 39.0802 34.9954 39.6328 35.2101C42.8859 36.3774 45.7543 38.4188 47.9228 41.1101C48.8923 42.3863 49.6332 43.8209 50.1128 45.3501C50.6102 46.9366 50.7469 48.6141 50.5128 50.2601C50.3965 51.067 50.2022 51.8607 49.9328 52.6301C49.6417 53.3495 49.3077 54.0507 48.9328 54.7301C48.1786 55.992 47.2569 57.1458 46.1928 58.1601C44.1783 60.045 41.8675 61.5856 39.3528 62.7201C36.9548 63.834 34.4527 64.7082 31.8828 65.3301C27.3961 66.399 22.7946 66.9096 18.1828 66.8501C12.3569 66.8295 6.57734 65.815 1.09279 63.8501C-0.557212 63.0701 -0.237213 62.8501 1.37279 62.6101C3.9082 62.304 6.46843 62.2605 9.01279 62.4801C10.4228 62.6001 11.8328 62.6701 13.2328 62.7001C14.6328 62.7301 16.0228 62.8101 17.4128 62.8001C20.1689 62.8089 22.9212 62.5949 25.6428 62.1601C28.3314 61.7349 30.9757 61.0654 33.5428 60.1601C36.0572 59.2838 38.4497 58.0909 40.6628 56.6101C41.8988 55.7588 42.9781 54.6998 43.8528 53.4801C44.6684 52.394 45.1794 51.1098 45.3328 49.7601C45.5628 47.2701 43.9228 44.7601 41.5628 42.9701C40.2586 41.969 38.7852 41.2103 37.2128 40.7301C36.8328 40.6001 36.4328 40.5501 36.0428 40.4301C35.6528 40.3101 35.1828 40.2801 34.7528 40.2001C33.8643 40.0708 32.9698 39.9874 32.0728 39.9501C28.2514 39.9027 24.4316 40.13 20.6428 40.6301C18.1355 40.9012 15.6145 41.0248 13.0928 41.0001C11.7779 40.9656 10.4659 40.8588 9.16279 40.6801C7.70029 40.4516 6.29304 39.9531 5.01279 39.2101C2.81762 38.0192 1.25639 35.9242 0.742787 33.4801C0.34155 31.1251 0.876222 28.7065 2.23279 26.7401C2.81057 25.8775 3.4595 25.0646 4.17279 24.3101C4.85558 23.5886 5.57661 22.9043 6.33279 22.2601C7.07815 21.6269 7.85586 21.0328 8.66279 20.4801C9.06279 20.2001 9.46279 19.9101 9.87279 19.6501L11.1128 18.9101C16.2564 15.8162 22.0346 13.9289 28.0128 13.3901C29.3422 13.2647 30.6783 13.2246 32.0128 13.2701C33.0716 13.3557 34.1237 13.5094 35.1628 13.7301C35.8514 13.917 36.521 14.1681 37.1628 14.4801C38.0827 14.8877 38.7647 15.695 39.0128 16.6701C39.1461 17.0694 39.2366 17.4817 39.2828 17.9001C39.2828 18.5401 38.7328 18.9601 37.8528 19.1601C37.3327 19.2636 36.803 19.3105 36.2728 19.3001C35.5872 19.3539 34.8984 19.3539 34.2128 19.3001C31.9296 19.2136 29.6433 19.3374 27.3828 19.6701C25.1024 20.0477 22.8578 20.6164 20.6728 21.3701C18.5055 22.17 16.4194 23.1745 14.4428 24.3701C12.5144 25.4823 10.7563 26.8665 9.22279 28.4801C8.94279 28.7501 8.74279 29.0701 8.48279 29.3601L8.12279 29.8001L7.87279 30.1601C7.58898 30.5405 7.37251 30.9666 7.23279 31.4201C7.13239 31.6882 7.10478 31.978 7.15279 32.2601C7.18352 32.5193 7.29153 32.7632 7.46279 32.9601C7.72879 33.271 8.05111 33.5289 8.41279 33.7201C8.91022 33.9721 9.44291 34.1475 9.99279 34.2401C10.376 34.3139 10.7634 34.364 11.1528 34.3901C11.5628 34.4501 11.9928 34.4701 12.4228 34.4901C13.2828 34.5501 14.1728 34.4901 15.0728 34.4901L15.0828 34.6301Z" fill="#fff"/>
<path d="M17.4726 50.37C16.9726 46.31 16.3626 42.25 15.7226 38.2C15.4926 36.72 15.1026 35.27 14.8626 33.79C14.0726 28.57 13.1926 23.35 12.1126 18.17C11.6126 15.89 11.1126 13.59 10.4126 11.37C10.0126 9.93003 9.5326 8.52003 9.1126 7.09003C8.6926 5.66003 8.3126 4.24003 8.0526 2.76003C7.8926 1.83003 8.7426 1.63003 9.8526 2.07003C11.3028 2.66503 12.4671 3.79713 13.1026 5.23003C14.3026 8.13003 15.3626 11.05 16.2626 14.02C17.1046 17.0184 17.7329 20.0727 18.1426 23.16C18.4172 25.0327 18.7944 26.8888 19.2726 28.72C19.7026 30.58 20.1826 32.44 20.5726 34.3C20.9626 36.3 21.3726 38.41 21.7126 40.47L22.7126 46.67L23.8026 54.32C24.0826 56.25 24.3426 58.19 24.5626 60.13C24.7826 62.07 25.0526 64 25.3026 65.93C25.5226 67.42 25.8126 68.93 26.0626 70.38C26.3621 71.861 26.5857 73.3563 26.7326 74.86C26.7326 75.53 26.8526 76.18 26.8626 76.86C26.8955 77.7845 26.7177 78.7044 26.3426 79.55C26.0624 80.0848 25.5856 80.4899 25.0126 80.68C24.7471 80.8003 24.473 80.9006 24.1926 80.98C23.3026 81.16 22.5226 80.13 22.0026 78.44C20.3126 73.44 19.8526 68.07 19.0726 62.62C18.5126 58.62 18.0126 54.48 17.3526 50.4L17.4726 50.37Z" fill="#fff"/>
<path d="M32.4326 29.7C32.5192 33.6 32.7026 37.5033 32.9826 41.41C33.0726 42.83 33.3726 44.23 33.4726 45.65C33.6426 48.16 33.9126 50.65 34.1126 53.18C34.3126 55.71 34.5426 58.18 34.8926 60.7C35.2006 62.91 35.6212 65.1028 36.1526 67.27C36.4626 68.65 36.9026 70 37.2326 71.38C37.5534 72.7683 37.7938 74.174 37.9526 75.59C38.0326 76.48 37.2326 76.59 36.1826 76.15C34.8088 75.5153 33.7162 74.3977 33.1126 73.01C31.2597 67.3234 30.0751 61.4405 29.5826 55.48C29.4026 53.7 29.2226 51.9 28.9426 50.09C28.6626 48.28 28.4126 46.48 28.2126 44.68C27.8026 40.68 27.5326 36.68 27.3126 32.68C27.2226 31.45 27.2026 30.21 27.1526 28.98C27.1026 27.75 27.0126 26.54 27.0126 25.31C26.9426 21.58 27.0126 17.83 27.0126 14.11C27.0126 12.67 27.0126 11.24 27.0126 9.8C27.0126 8.36 27.0126 6.94 27.1126 5.48C27.1126 4.85 27.1626 4.22 27.2326 3.58C27.5926 1.19 28.0826 0.46 29.1326 0.18C29.3715 0.103538 29.6154 0.0433997 29.8626 0C30.6426 0 31.1126 1 31.1426 2.65C31.2326 5.11 31.3926 7.65 31.5726 10.19C31.6226 11.46 31.7826 12.76 31.8526 14.06V16.06L31.9526 18.06C32.0726 21.94 32.3926 25.86 32.5326 29.78L32.4326 29.7Z" fill="#fff"/>
</svg>
