<svg width="48" height="45" viewBox="0 0 48 45" fill="none" xmlns="http://www.w3.org/2000/svg">
<path d="M7.92476 20.7263C7.43599 21.8715 7.23633 23.1194 7.34336 24.36C7.50848 25.6848 7.97122 26.955 8.69694 28.0756C9.30686 28.952 10.0072 29.7619 10.7864 30.492C13.6383 33.3987 17.0336 35.7167 20.7792 37.3144C22.4699 38.0567 24.2165 38.6642 26.0028 39.1313C27.1383 39.4402 28.3102 39.6128 29.4458 39.8762C30.5813 40.1397 31.7351 40.494 32.8979 40.7847C33.6246 40.9482 33.5519 41.2389 32.8979 41.6931C32.4594 41.9703 31.9937 42.2016 31.5079 42.3835C30.8599 42.6539 30.1731 42.8195 29.473 42.8741C29.146 42.8741 28.8099 42.8741 28.4828 42.8741L27.5108 42.7651C26.8658 42.7015 26.2299 42.5743 25.5849 42.4744C24.3096 42.2403 23.0481 41.9371 21.8058 41.5659C19.3365 40.7334 16.9759 39.608 14.7744 38.2138C12.1672 36.5059 9.27834 34.8889 7.0254 32.3634C5.75339 30.9657 4.73849 29.3542 4.02754 27.6032C3.30575 25.768 3.08625 23.7737 3.39163 21.8255L3.54607 20.917L3.80951 20.0722C3.96996 19.4992 4.17655 18.9402 4.42726 18.4006C4.95988 17.2955 5.71081 16.3097 6.63477 15.5027C7.98628 14.3415 9.59706 13.5221 11.3314 13.1135C12.9933 12.6965 14.7178 12.5887 16.4187 12.7955C19.006 13.0256 21.5207 13.7732 23.8134 14.994C24.3277 15.2357 24.8201 15.5214 25.2851 15.8479C27.0021 17.1016 27.102 17.9918 26.8386 18.8912C26.7885 19.0981 26.7248 19.3014 26.6478 19.4999C26.4933 19.7815 26.1845 19.8905 25.7393 19.8814C25.1575 19.877 24.586 19.7271 24.0769 19.4454C23.6317 19.2182 23.123 19.082 22.7051 18.8367C22.2794 18.6034 21.8395 18.3971 21.3879 18.219C20.9569 18.0139 20.514 17.8349 20.0616 17.683C19.6073 17.5467 19.1531 17.3378 18.7262 17.2469C16.9971 16.7358 15.1778 16.6056 13.3936 16.8654C12.1842 17.0404 11.0294 17.4843 10.0142 18.1644C9.89608 18.2553 9.75982 18.328 9.65989 18.4188L9.35102 18.7004C9.15123 18.877 8.97149 19.075 8.81504 19.2909C8.65909 19.4915 8.51935 19.7041 8.39715 19.9268C8.26997 20.1721 8.16096 20.5082 8.03378 20.7898L7.92476 20.7263Z" fill="#5a5a5a"/>
<path d="M6.51496 12.5602C7.53776 11.8634 8.67568 11.3529 9.8762 11.0522C11.0258 10.7726 12.2111 10.6685 13.3919 10.7433C15.4894 10.8988 17.5449 11.4119 19.4694 12.2604C21.2362 13.0295 22.9375 13.941 24.5566 14.9858L25.674 15.7125L25.9284 15.9033L26.4462 16.3212C26.5698 16.4267 26.7003 16.5238 26.8368 16.6119C26.964 16.6845 27.1003 16.839 27.2184 16.7845C27.2184 16.4483 27.1275 16.1576 27.1003 15.876C27.073 15.5944 27.0185 15.3582 26.9731 15.0493C26.9731 15.0493 26.7914 14.2772 26.6915 13.723C26.5916 13.1689 26.4462 12.5239 26.3644 11.9061C26.2827 11.2884 26.2282 10.5798 26.2282 9.93481C26.2282 9.5896 26.2282 9.2444 26.2282 8.89919C26.2248 8.54622 26.2522 8.19362 26.3099 7.84539C26.4693 6.33405 27.0204 4.89049 27.9088 3.65747C28.145 3.35768 28.3812 3.03973 28.6356 2.74903L29.4713 2.0041C29.7517 1.75918 30.0561 1.54309 30.3798 1.35911C30.6977 1.17742 30.9975 0.977562 31.2882 0.804957C32.7006 0.129715 34.2763 -0.128699 35.8304 0.0600338C37.2705 0.275172 38.6397 0.825984 39.8276 1.66798C40.9176 2.42178 41.8831 3.34132 42.6892 4.39331C44.1119 6.15363 45.2101 8.15309 45.9323 10.2982C46.5803 12.3875 46.9499 14.5531 47.0315 16.7391C46.9328 22.1097 45.7525 27.4054 43.5613 32.3098C42.9345 33.8087 42.3894 33.409 42.0805 31.901C41.7102 29.5906 41.6521 27.2409 41.9079 24.915C42.2195 22.5052 42.2773 20.0694 42.0805 17.6475C42.0169 17.0661 41.9624 16.4938 41.9261 15.9215C41.8897 15.3491 41.808 14.7859 41.7081 14.2317L41.5536 13.4051L41.3447 12.5966C41.2891 12.3436 41.2162 12.0947 41.1266 11.8516C41.059 11.6084 40.9708 11.3714 40.8632 11.143C40.0766 9.22567 38.8579 7.51579 37.3021 6.1466C36.7101 5.58862 35.9892 5.18599 35.2036 4.97471C34.4876 4.82646 33.7423 4.93247 33.096 5.2745C32.1583 5.68424 31.4316 6.46345 31.0884 7.42751C30.7389 8.65471 30.6922 9.94832 30.9521 11.1975C31.052 11.9152 31.2246 12.6601 31.4063 13.4142L32.3147 17.1115C32.4419 17.7383 32.6236 18.4106 32.7145 19.0102C32.8053 19.6097 32.9052 20.2002 32.9325 20.7271C32.9383 21.2001 32.9201 21.6731 32.878 22.1443C32.8034 22.4835 32.7062 22.8173 32.5873 23.1436L32.3238 23.5978C32.2693 23.6796 32.2693 23.7522 32.1694 23.834C32.0781 23.8892 31.9757 23.9233 31.8696 23.9339C31.5438 23.9744 31.2143 23.9744 30.8885 23.9339C29.8648 23.8008 28.8889 23.4204 28.0451 22.8256C26.8278 22.008 25.6014 21.0632 24.4113 20.2729L23.5028 19.6915L22.876 19.2918L21.7859 18.6195C20.3387 17.7533 18.8189 17.0147 17.2437 16.412C15.7995 15.8284 14.2589 15.5203 12.7015 15.5036C11.8438 15.5101 10.9966 15.6925 10.2123 16.0396C9.82287 16.2089 9.45407 16.4223 9.11311 16.6755L7.98664 17.5839C6.55917 18.8068 5.58349 20.4735 5.21589 22.3169C4.68899 24.9695 5.68828 27.9674 7.55058 30.3839C9.4732 32.8584 11.9052 34.8907 14.6819 36.3433C19.0061 38.6689 23.8662 39.5773 28.7355 40.1042C29.8074 40.2132 30.8703 40.2405 31.9605 40.3222C36.003 40.6039 37.3021 40.9491 38.1833 42.1391C38.4038 42.397 38.6014 42.6736 38.7738 42.9658C39.1735 43.8743 37.4565 44.6828 34.2861 44.919C29.3923 45.2121 24.4835 44.7089 19.751 43.4291C14.5916 42.1082 9.83677 39.5374 5.9063 35.9435C4.35926 34.4838 3.03678 32.8031 1.98183 30.9562C0.832499 28.9425 0.158248 26.6929 0.0105059 24.3791C-0.0907416 21.9188 0.541674 19.484 1.82739 17.384C2.421 16.3939 3.13168 15.4789 3.94407 14.6587L4.52547 14.0591L5.15229 13.5322C5.59743 13.187 5.93356 12.86 6.46045 12.4966L6.51496 12.5602Z" fill="#5a5a5a"/>
</svg>
