<svg width="306" height="56" viewBox="0 0 306 56" fill="none" xmlns="http://www.w3.org/2000/svg">
<path d="M1.13723 13.3374C40.5207 12.24 79.8937 11.0207 119.256 9.67949L237.376 5.7625C259.653 5.03093 281.931 4.14693 304.209 3.55252V0.0622868C269.935 4.07072 235.662 8.52116 201.513 12.8039L99.6114 25.5303L41.7826 32.7394C39.4146 33.029 39.2432 36.5345 41.7826 36.4735L156.646 33.8673L189.252 33.1357L188.738 29.4169C163.812 33.7047 138.933 37.9824 114.1 42.2499C111.841 42.6462 112.542 45.9078 114.614 46.0145L174.001 48.697L173.471 44.7952C163.937 47.2186 154.293 49.3676 144.868 52.1567C142.781 52.7816 143.077 56.1042 145.398 55.9975C146.956 55.9975 148.638 55.7994 150.243 55.7841C150.722 55.7841 151.182 55.5979 151.521 55.2663C151.86 54.9347 152.05 54.4851 152.05 54.0162C152.05 53.5473 151.86 53.0975 151.521 52.766C151.182 52.4344 150.722 52.2482 150.243 52.2482C148.685 52.2482 147.018 52.1415 145.398 52.0957L145.943 55.9365C155.555 53.8485 165.027 51.0898 174.546 48.636C175.018 48.5045 175.427 48.2106 175.696 47.8084C175.965 47.4061 176.076 46.9224 176.01 46.4461C175.944 45.9699 175.704 45.533 175.335 45.2157C174.966 44.8984 174.492 44.7221 174.001 44.719L114.614 42.189L115.128 45.9383C140.054 41.62 164.934 37.327 189.766 33.0595C191.916 32.6937 191.324 29.2949 189.252 29.3406L74.3736 31.9926L41.7826 32.7394V36.4735L144.385 23.5947L247.066 10.7464C266.274 8.33826 285.499 5.99111 304.708 3.43059C306.702 3.17149 306.265 -0.0748855 304.24 0.00132056C264.872 1.66261 225.489 2.79047 186.121 4.16217C146.753 5.53388 107.37 6.90559 68.0019 8.3535C45.7241 9.19685 23.4462 10.0554 1.16842 10.9293C-0.389472 10.9293 -0.389472 13.3221 1.16842 13.2764L1.13723 13.3374Z" fill="black" fill-opacity="0.7"/>
</svg>
